<svg width="1000" height="600" xmlns="http://www.w3.org/2000/svg">
            <defs>
                <linearGradient id="bg" x1="0%" y1="0%" x2="100%" y2="100%">
                    <stop offset="0%" style="stop-color:#f0f8f1;stop-opacity:1" />
                    <stop offset="100%" style="stop-color:#e5e8e5;stop-opacity:1" />
                </linearGradient>
            </defs>
            <rect width="100%" height="100%" fill="url(#bg)"/><line x1="125.0" y1="388.0" x2="250.0" y2="203.0" stroke="#ccc" stroke-width="1" stroke-dasharray="5,5"/><line x1="250.0" y1="287.0" x2="375.0" y2="396.0" stroke="#ccc" stroke-width="1" stroke-dasharray="5,5"/><line x1="375.0" y1="332.0" x2="500.0" y2="372.0" stroke="#ccc" stroke-width="1" stroke-dasharray="5,5"/><line x1="500.0" y1="209.0" x2="625.0" y2="388.0" stroke="#ccc" stroke-width="1" stroke-dasharray="5,5"/><line x1="625.0" y1="315.0" x2="750.0" y2="364.0" stroke="#ccc" stroke-width="1" stroke-dasharray="5,5"/><line x1="750.0" y1="385.0" x2="875.0" y2="390.0" stroke="#ccc" stroke-width="1" stroke-dasharray="5,5"/><polygon points="145.0,329.0 133.6602540378444,334.0 135.0,346.3205080756888 125.0,339.0 115.0,346.3205080756888 116.33974596215562,334.0 105.0,329.0 116.3397459621556,324.0 114.99999999999999,311.6794919243112 125.0,319.0 135.0,311.6794919243112 133.6602540378444,324.0" fill="#a4f98d" opacity="0.8" transform="rotate(144 125.0 329.0)"><title>a4f98d28</title></polygon><polygon points="281.26428945690265,246.0 270.41473123424896,271.5992632717922 243.2509566126106,275.5694911121659 218.137347033616,261.34424495648295 218.3021587250148,230.73512417097746 242.58514203696114,213.51338463081663 270.17221480546624,220.70484271113295" fill="#286f4e" opacity="0.8" transform="rotate(279 250.0 246.0)"><title>286f4e5f</title></polygon><circle cx="375.0" cy="229.0" r="31.854067666648938" fill="none" stroke="#68afa7" stroke-width="3" stroke-dasharray="3,7" transform="rotate(354 375.0 229.0)"><title>68afa73a</title></circle><circle cx="500.0" cy="328.0" r="32.60486992940779" fill="none" stroke="#94790d" stroke-width="3" stroke-dasharray="6,8" transform="rotate(206 500.0 328.0)"><title>94790d0e</title></circle><polygon points="650.9737246722437,352.0 637.9886255818138,374.49695942819034 614.6744702273444,369.8843421813046 603.4256007584585,352.0 612.26407253962,329.94072655711017 637.8439710799438,329.75358951859215" fill="#470324" opacity="0.8" transform="rotate(83 625.0 352.0)"><title>470324f3</title></polygon><polygon points="796.4893478102767,249.0 764.3066826691916,293.03144172256145 724.0522124078319,267.85217119335994 717.519370863286,225.40144159580723 761.0104050805071,215.1134575460925" fill="#432a31" opacity="0.8" transform="rotate(147 750.0 249.0)"><title>432a318b</title></polygon><circle cx="875.0" cy="212.0" r="50.050123028608425" fill="none" stroke="#b828bf" stroke-width="3" stroke-dasharray="4,8" transform="rotate(102 875.0 212.0)"><title>b828bf3e</title></circle></svg>